<svg viewBox="0 0 500 500" xmlns="http://www.w3.org/2000/svg">
<style>
    line{
        animation: appear 3000ms infinite;
        animation-delay: calc(var(--animation-order) * 100ms);
        opacity: 0;
    }
    @keyframes appear{
        4%, 50%{
            opacity: 1;
        }
        54%, 100%{
            opacity: 0;
        }
    }
</style>
  <rect x="0" y="0" width="500" height="500" style="fill: rgb(34, 34, 34); stroke-linecap: round; stroke-linejoin: round; stroke: rgb(34, 34, 34); paint-order: fill;" rx="15"></rect>
  <line style="--animation-order: 1; stroke-width: 15px; stroke-linecap: round; stroke: rgb(197, 150, 199);" x1="30" y1="22.5" x2="130" y2="22.5" transform="matrix(-1, 0, 0, -1, 160, 45)"></line>
  <line style="--animation-order: 2; stroke-width: 15px; stroke-linecap: round; stroke: rgb(197, 150, 199);" x1="160" y1="22.5" x2="285" y2="22.5"></line>
  <line style="--animation-order: 3; stroke-width: 15px; stroke-linecap: round; stroke: rgb(86, 179, 180);" x1="30" y1="57.5" x2="245" y2="57.5"></line>
  <line style="--animation-order: 4; stroke-width: 15px; stroke-linecap: round; stroke: rgb(86, 179, 180);" x1="275" y1="57.5" x2="420" y2="57.5"></line>
  <line style="--animation-order: 5; stroke-width: 15px; stroke-linecap: round; stroke: rgb(86, 179, 180);" x1="30" y1="92.5" x2="175" y2="92.5"></line>
  <line style="--animation-order: 6; stroke-width: 15px; stroke-linecap: round; stroke: rgb(234, 94, 94);" x1="205" y1="92.5" x2="420" y2="92.5"></line>
  <line style="--animation-order: 7; stroke-width: 15px; stroke-linecap: round; stroke: rgb(248, 188, 69);" x1="30" y1="127.5" x2="470" y2="127.5"></line>
  <line style="--animation-order: 8; stroke-width: 15px; stroke-linecap: round; stroke: rgb(234, 94, 94);" x1="30" y1="162.5" x2="230" y2="162.5"></line>
  <line style="--animation-order: 9; stroke-width: 15px; stroke-linecap: round; stroke: rgb(234, 94, 94);" x1="260" y1="162.5" x2="290" y2="162.5"></line>
  <line style="--animation-order: 10; stroke-width: 15px; stroke-linecap: round; stroke: rgb(197, 150, 199);" x1="30" y1="197.5" x2="290" y2="197.5"></line>
  <line style="--animation-order: 11; stroke-width: 15px; stroke-linecap: round; stroke: rgb(248, 188, 69);" x1="320" y1="197.5" x2="400" y2="197.5"></line>
  <line style="--animation-order: 12; stroke-width: 15px; stroke-linecap: round; stroke: rgb(86, 179, 180);" x1="30" y1="232.5" x2="279" y2="232.5"></line>
  <line style="--animation-order: 13; stroke-width: 15px; stroke-linecap: round; stroke: #f8bc45" x1="30" y1="267.5" x2="89" y2="267.5"></line>
  <line style="--animation-order: 14; stroke-width: 15px; stroke-linecap: round; stroke: #555" x1="114" y1="267.5" x2="195" y2="268.799"></line>
  <line style="--animation-order: 15; stroke-width: 15px; stroke-linecap: round; stroke: rgb(86, 179, 180);" x1="30" y1="302.5" x2="196" y2="302.5"></line>
  <line style="--animation-order: 16; stroke-width: 15px; stroke-linecap: round; stroke: #ea5e5e" x1="226" y1="302.5" x2="418" y2="302.5"></line>
  <line style="--animation-order: 17; stroke-width: 15px; stroke-linecap: round; stroke: #c596c7" x1="30" y1="337.5" x2="310" y2="337.5"></line>
  <line style="--animation-order: 18; stroke-width: 15px; stroke-linecap: round; stroke: #ea5e5e" x1="30" y1="372.5" x2="414" y2="372.5"></line>
  <line style="--animation-order: 19; stroke-width: 15px; stroke-linecap: round; stroke: #f8bc45" x1="30" y1="407.5" x2="183" y2="407.5"></line>
  <line style="--animation-order: 20; stroke-width: 15px; stroke-linecap: round; stroke: #f8bc45" x1="213" y1="407.5" x2="295" y2="407.5"></line>
  <line style="--animation-order: 21; stroke-width: 15px; stroke-linecap: round; stroke: #c596c7" x1="30" y1="442.5" x2="154" y2="442.5"></line>
  <line style="--animation-order: 22; stroke-width: 15px; stroke-linecap: round; stroke: #c596c7" x1="184" y1="442.5" x2="358" y2="442.5"></line>
  <line style="--animation-order: 23; stroke-width: 15px; stroke-linecap: round; stroke: #c596c7" x1="388" y1="442.5" x2="401" y2="442.5"></line>
  <line style="stroke-width: 15px; stroke-linecap: round; stroke: #f8bc45" x1="30" y1="477.5" x2="273" y2="477.5"></line>
</svg>